<?xml version="1.0" encoding="UTF-8" standalone="no"?>
<!DOCTYPE svg PUBLIC "-//W3C//DTD SVG 1.1//EN" "http://www.w3.org/Graphics/SVG/1.1/DTD/svg11.dtd">
<svg width="100%" height="100%" viewBox="0 0 1000 1000" version="1.1" xmlns="http://www.w3.org/2000/svg" xmlns:xlink="http://www.w3.org/1999/xlink" xml:space="preserve" xmlns:serif="http://www.serif.com/" style="fill-rule:evenodd;clip-rule:evenodd;stroke-linejoin:round;stroke-miterlimit:2;">
    <g transform="matrix(-1.69465,2.07535e-16,-2.07535e-16,-1.69465,1549.82,1185.11)">
        <path d="M426.096,201.264C834.241,-40.72 833.404,487.775 835.996,497.959C842.335,523.427 853.612,571.739 860.451,619.675C860.766,621.9 860.25,624.164 859.002,626.033C857.563,628.184 856.102,630.319 854.62,632.437C853.219,634.44 850.906,635.605 848.463,635.54C846.02,635.474 843.773,634.187 842.482,632.112C752.997,488.507 672.763,459.22 596.922,409.435C529.602,365.243 545.782,325.652 558.058,308.637C561.999,303.233 569.077,301.147 575.319,303.549C772.04,379.19 737.337,279.345 729.993,261.777C729.315,260.179 728.423,258.681 727.341,257.322C713.888,241.077 614.109,128.305 524.082,244.339C453.66,335.106 497.139,426.442 526.023,469.436C535.455,483.412 553.157,489.221 569.036,483.552C644.439,456.752 718.217,519.229 775.681,593.996C779.041,598.383 779.843,604.214 777.793,609.346C775.743,614.477 771.143,618.15 765.685,619.014C728.269,626.103 671.171,643.315 645.391,651.337C637.463,653.818 628.863,650.603 624.507,643.53C617.379,631.958 606.694,614.608 599.707,603.263C594.913,595.478 585.408,591.993 576.719,594.835C544.054,605.605 489.947,643.01 459.052,665.545C452.686,670.198 444.577,671.769 436.934,669.831C429.291,667.893 422.91,662.648 419.53,655.525C353.596,516.682 374.192,232.037 426.096,201.264Z" style="fill:rgb(200,241,19);"/>
    </g>
</svg>
