<?xml version="1.0" encoding="UTF-8" standalone="no"?><!DOCTYPE svg PUBLIC "-//W3C//DTD SVG 1.1//EN" "http://www.w3.org/Graphics/SVG/1.1/DTD/svg11.dtd">
<svg width="100%" height="100%" viewBox="0 0 1000 1000" version="1.1" xmlns="http://www.w3.org/2000/svg" xmlns:xlink="http://www.w3.org/1999/xlink" xml:space="preserve" xmlns:serif="http://www.serif.com/" style="fill-rule:evenodd;clip-rule:evenodd;stroke-linejoin:round;stroke-miterlimit:2;">
	<path d="M528.338,987.774c4.543,0.04 8.911,-1.747 12.124,-4.96c41.774,-41.774 331.087,-331.087 372.619,-372.619c3.177,-3.177 4.961,-7.485 4.961,-11.977c0,-59.474 0,-479.185 0,-569.117c0,-4.492 -1.784,-8.8 -4.961,-11.976c-3.176,-3.177 -7.485,-4.961 -11.977,-4.961c-24.843,-0 -70.092,-0 -87.428,-0c-4.492,-0 -8.8,1.784 -11.976,4.961c-24.058,24.058 -128.877,128.876 -164.6,164.599c-3.176,3.177 -7.485,4.961 -11.977,4.961c-4.492,0 -8.8,-1.784 -11.976,-4.961c-29.428,-29.427 -105.013,-105.012 -134.44,-134.439c-3.176,-3.177 -7.485,-4.961 -11.977,-4.961c-4.492,-0 -8.8,1.784 -11.977,4.961c-30.662,30.662 -111.733,111.733 -142.395,142.395c-6.615,6.615 -6.615,17.339 0,23.954c40.405,40.405 171.423,171.422 211.828,211.828c6.615,6.614 17.339,6.614 23.954,-0c15.794,-15.795 43.426,-43.427 59.221,-59.221c3.176,-3.177 7.484,-4.961 11.976,-4.961c4.492,-0 8.801,1.784 11.977,4.961c35.029,35.029 137.02,137.02 172.049,172.049c3.176,3.176 4.961,7.484 4.961,11.976c-0,4.492 -1.785,8.801 -4.961,11.977c-53.368,53.368 -269.222,269.222 -322.59,322.59c-6.615,6.615 -17.339,6.615 -23.954,0l-145.708,-145.708c-1.339,-1.339 -2.091,-3.155 -2.091,-5.048c0,-1.893 0.752,-3.708 2.091,-5.047c11.768,-11.768 40.912,-40.912 52.595,-52.595c3.176,-3.177 7.484,-4.961 11.977,-4.961c25.795,-0 115.841,-0 153.668,-0c4.492,-0 8.8,-1.785 11.976,-4.961c3.177,-3.176 4.961,-7.485 4.961,-11.977c0,-15.096 0,-36.44 0,-47.349c0,-4.492 -1.784,-8.801 -4.961,-11.977c-41.821,-41.821 -336.25,-336.251 -430.455,-430.455c-4.844,-4.844 -12.129,-6.293 -18.458,-3.672c-6.329,2.622 -10.456,8.798 -10.456,15.649c-0,131.67 -0,539.465 -0,597.96c-0,4.493 1.784,8.801 4.961,11.977c28.023,28.023 166.235,166.235 194.097,194.097c3.141,3.141 7.389,4.922 11.83,4.961c35.776,0.311 199.308,1.733 235.492,2.047Z" fill="currentColor"/>
</svg>