<?xml version="1.0" encoding="UTF-8" standalone="no"?>
<!DOCTYPE svg PUBLIC "-//W3C//DTD SVG 1.1//EN" "http://www.w3.org/Graphics/SVG/1.1/DTD/svg11.dtd">
<svg width="100%" height="100%" viewBox="0 0 1000 1000" version="1.1" xmlns="http://www.w3.org/2000/svg" xmlns:xlink="http://www.w3.org/1999/xlink" xml:space="preserve" xmlns:serif="http://www.serif.com/" style="fill-rule:evenodd;clip-rule:evenodd;stroke-linejoin:round;stroke-miterlimit:2;">
    <g transform="matrix(1.59372,0,0,1.59372,-199.523,-297.135)">
        <path d="M170.029,280.333C170.092,274.064 174.411,268.641 180.507,267.177C315.767,234.759 347.646,283.228 354.793,302.121C356.164,305.793 356.656,309.735 356.231,313.632C353.644,337.882 341.128,452.34 336.79,472.1C321.47,541.889 357.793,620.321 374.978,652.184C376.864,655.602 380.181,657.995 384.018,658.707C387.856,659.419 391.811,658.375 394.797,655.861C418.614,635.986 469.828,600.835 488.188,588.358C489.867,587.199 491.967,586.826 493.943,587.336C495.918,587.846 497.575,589.189 498.484,591.016C500.858,595.772 503.66,601.407 504.423,602.942C504.57,603.239 504.729,603.53 504.898,603.815C507.847,608.56 533.557,647.455 572.62,623.612C598.133,608.039 637.276,631.435 654.732,643.675C656.905,645.218 658.232,647.689 658.318,650.353C658.404,653.017 657.239,655.569 655.17,657.249C626.033,680.92 529.926,758.966 493.565,788.494C485.555,794.998 474.034,794.821 466.228,788.074C437.752,764.043 366.587,712.785 286.813,721.195C276.583,722.28 266.864,716.482 262.96,706.963C249.383,674.022 220.105,602.635 211.947,582.746C210.521,579.269 209.537,575.627 209.018,571.905C203.915,535.274 175.381,329.937 170.029,280.333ZM176.13,249.742C175.011,250.101 173.785,249.769 173.001,248.893C172.218,248.017 172.023,246.762 172.504,245.69C173.116,244.294 173.822,243.291 174.644,242.801C182.154,238.316 365.571,157.035 581.266,232.047C589.225,234.838 595,241.784 596.293,250.118C600.47,276.985 609.714,336.598 612.78,356.365C612.895,357.104 613.417,357.716 614.13,357.944C614.842,358.173 615.623,357.98 616.146,357.445C637.069,336.003 784.711,434.388 657.653,483.499C651.513,485.902 648.124,492.503 649.751,498.893C654.535,518.114 663.802,558.072 667.314,593.414C667.436,594.934 666.493,596.336 665.039,596.795C663.586,597.253 662.008,596.647 661.236,595.333C602.087,494.547 549.412,475.954 499.741,443.347C457.5,415.619 467.652,390.777 475.355,380.1C477.828,376.709 482.269,375.4 486.186,376.908C609.621,424.37 587.846,361.721 583.238,350.697C582.812,349.695 582.253,348.754 581.574,347.902C573.133,337.709 510.525,266.949 454.036,339.756C409.849,396.708 437.13,454.019 455.254,480.996C461.172,489.765 472.28,493.41 482.243,489.853C529.556,473.037 575.849,512.239 611.906,559.153C614.014,561.905 614.517,565.564 613.231,568.784C611.944,572.004 609.058,574.309 605.633,574.851C582.156,579.299 546.329,590.099 530.153,595.132C525.179,596.689 519.782,594.672 517.049,590.233C512.577,582.972 505.872,572.086 501.488,564.967C498.48,560.082 492.516,557.896 487.064,559.679C466.568,566.437 432.617,589.907 413.232,604.047C409.238,606.966 404.149,607.952 399.354,606.737C394.558,605.521 390.554,602.23 388.433,597.76C347.062,510.641 383.419,349.471 392.553,312.728C393.914,307.483 393.388,301.926 391.067,297.03C347.53,204.497 210.648,239.124 176.13,249.742Z" style="fill:rgb(200,241,19);"/>
    </g>
</svg>
